<?xml version="1.0" encoding="UTF-8" standalone="no"?>
<!-- Created with Inkscape (http://www.inkscape.org/) -->

<svg
   width="297mm"
   height="210mm"
   viewBox="0 0 297 210"
   version="1.1"
   id="svg5"
   inkscape:version="1.2.2 (b0a8486541, 2022-12-01)"
   sodipodi:docname="logo.svg"
   xmlns:inkscape="http://www.inkscape.org/namespaces/inkscape"
   xmlns:sodipodi="http://sodipodi.sourceforge.net/DTD/sodipodi-0.dtd"
   xmlns="http://www.w3.org/2000/svg"
   xmlns:svg="http://www.w3.org/2000/svg">
  <sodipodi:namedview
     id="namedview7"
     pagecolor="#ffffff"
     bordercolor="#000000"
     borderopacity="0.25"
     inkscape:showpageshadow="2"
     inkscape:pageopacity="0.0"
     inkscape:pagecheckerboard="0"
     inkscape:deskcolor="#d1d1d1"
     inkscape:document-units="mm"
     showgrid="false"
     inkscape:zoom="1.829812"
     inkscape:cx="613.17775"
     inkscape:cy="397.85508"
     inkscape:window-width="3840"
     inkscape:window-height="2098"
     inkscape:window-x="0"
     inkscape:window-y="30"
     inkscape:window-maximized="1"
     inkscape:current-layer="layer1" />
  <defs
     id="defs2" />
  <g
     inkscape:label="original_great_vibes"
     inkscape:groupmode="layer"
     id="layer1"
     transform="matrix(4.6228707,0,0,4.6228707,-89.15399,-286.74275)"
     style="display:none;fill:#cccccc;stroke-width:0.216316"
     sodipodi:insensitive="true">
    <text
       xml:space="preserve"
       style="font-size:11.6417px;font-family:'Beau Rivage';-inkscape-font-specification:'Beau Rivage';fill:#cccccc;stroke-width:0.635103;stroke-linecap:round"
       x="28.109432"
       y="84.7332"
       id="text236"><tspan
         sodipodi:role="line"
         id="tspan234"
         style="font-style:normal;font-variant:normal;font-weight:normal;font-stretch:normal;font-family:'Great Vibes';-inkscape-font-specification:'Great Vibes';fill:#cccccc;stroke-width:0.635103"
         x="28.109432"
         y="84.7332"
         dx="0 -0.57838356">Weld</tspan></text>
  </g>
  <g
     inkscape:groupmode="layer"
     id="layer2"
     inkscape:label="top">
    <path
       style="fill:none;stroke:#000000;stroke-width:0.236;stroke-linecap:round;stroke-dasharray:none"
       d="m 70.926129,62.778239 c 0.845887,0.780818 3.03205,-0.111639 4.919029,2.556156 4.099295,3.969157 -5.805414,21.427779 -10.490321,38.280435 0,0 -1.196259,7.17759 2.024451,7.91375 7.729707,0.9202 17.023754,-14.723251 19.002189,-17.345828 -2.852631,12.422738 2.070953,13.734828 3.940411,14.420218 4.925917,1.80597 16.854482,-3.9094 22.515412,-14.190168 8.00338,-19.910859 -4.43163,-22.832192 -6.57888,-22.636986 -1.10616,-0.06507 -3.81286,0.680342 -3.87793,1.526227 0,0.910955 2.79803,-1.53718 6.72977,0.451641 6.09972,3.085474 3.08952,16.166575 0.5333,19.989938 -7.28512,10.896408 -15.30322,14.800118 -19.039757,13.580418 -8.926371,-2.9138 5.783414,-23.061215 2.725207,-25.794079 -4.880112,-2.602726 -14.0082,26.448159 -23.977266,28.691829 -5.898876,1.0942 8.98067,-29.222881 10.282033,-37.09613 0.910957,-6.246543 -2.056031,-9.163114 -4.463552,-10.594614 0,0 -3.98382,-1.900059 -4.244096,0.24719 z"
       id="path453"
       sodipodi:nodetypes="cccccscccssscccccc" />
    <path
       style="fill:none;stroke:#000000;stroke-width:0.236;stroke-linecap:round;stroke-dasharray:none"
       d="m 116.60936,96.785274 c 3.38355,0.03253 13.66433,-5.823604 9.40237,-10.410906 -5.33559,-4.815046 -19.09752,14.249932 -10.50852,18.414292 7.80818,1.56163 10.93146,-5.726005 10.93146,-5.726005 0,6.246545 2.60272,5.986275 2.60272,5.986275 5.46571,0.52054 7.28762,-4.03423 8.71912,-5.335596 -0.0651,4.815046 1.62673,4.327036 2.47261,4.945186 4.42463,0.91095 7.9383,-5.335586 7.9383,-5.335586 -0.52056,5.075316 2.99314,5.628386 2.99314,5.628386 5.46573,0.13013 111.16893,3.93663 117.77336,-3.15581 l -2.08215,-0.39039 c -1.43149,4.5873 -112.92581,2.66778 -115.23573,2.04963 -4.78249,-1.1387 13.46911,-31.200175 14.34753,-32.078596 -2.30992,0.16267 -3.31848,-0.618148 -4.32704,0.357875 -2.44006,2.505122 -6.57189,13.14377 -8.00338,15.22595 -0.52054,-1.69177 -5.12295,-1.049221 -5.60283,-0.878418 -8.71914,4.554776 -8.90737,9.272209 -9.62312,10.573573 -6.37667,11.354396 -8.84927,6.409216 -9.04448,5.953736 -0.65068,-4.164355 0.8459,-7.352698 1.33391,-7.905777 14.28245,-15.876627 13.14376,-23.522144 10.86638,-23.457076 -7.54792,-0.260271 -14.08725,24.302958 -14.08725,24.302958 -10.28077,17.568405 -13.46912,3.773955 -10.8664,1.236299 z"
       id="path1167"
       sodipodi:nodetypes="cccccccccccccccccccccc" />
    <path
       style="fill:none;stroke:#000000;stroke-width:0.236;stroke-linecap:round;stroke-dasharray:none"
       d="m 116.93471,95.548975 c 0,0 5.23799,-9.011936 8.06845,-8.458856 2.04965,0.748283 -0.97601,6.539344 -5.33558,8.068445 -1.6267,0.455476 -2.73287,0.390411 -2.73287,0.390411 z"
       id="path1169"
       sodipodi:nodetypes="cccc" />
    <path
       style="fill:none;stroke:#000000;stroke-width:0.236;stroke-linecap:round;stroke-dasharray:none"
       d="m 131.11957,92.816118 c 4.13183,-11.15919 9.40235,-19.455386 10.28077,-19.390318 1.46403,0.422943 -1.49656,6.767094 -2.47258,8.458867 -2.50512,4.359566 -7.80819,10.931451 -7.80819,10.931451 z"
       id="path1171"
       sodipodi:nodetypes="cccc" />
    <path
       style="fill:none;stroke:#000000;stroke-width:0.236;stroke-linecap:round;stroke-dasharray:none"
       d="m 141.00992,103.22702 c -2.21232,-2.9606 3.51369,-11.451995 3.51369,-11.451995 0,0 5.49825,-6.962296 8.84926,-4.034229 -1.70263,4.044971 -9.18545,17.416584 -12.36295,15.486224 z"
       id="path1173"
       sodipodi:nodetypes="cccc" />
  </g>
</svg>
